# xmcd
#
# Track frame offsets:
#	150
#	22175
#	39900
#	55275
#	76795
#	121270
#	170545
#	192275
#	210900
#	225930
#	256435
#	275260
#	306135
#	338020
#
# Disc length: 4607 seconds
#
# Revision: 2
# Processed by: cddbd v1.5.1PL2 Copyright (c) Steve Scherf et al.
# Submitted via: EasyCDDAExtractor 8.0.2.1
#
DISCID=af11fd0e
DTITLE=Manowar - Sporthallen Umeå 23-11-99
DYEAR=1999
DGENRE=Hard Rock
TTITLE0=Manowar
TTITLE1=Metal Warriors
TTITLE2=Kill With Power
TTITLE3=Sign Of The Hammer
TTITLE4=Gates Of Valhalla
TTITLE5=Sting of The Bumblebee
TTITLE6=The Gods Made Heavy Metal
TTITLE7=Fighting The World
TTITLE8=Kings Of Metal
TTITLE9=Hail And Kill
TTITLE10=Wheels Of Fire
TTITLE11=The Power
TTITLE12=Black Wind Fire And Steele
TTITLE13=Outro
EXTD=
EXTT0=
EXTT1=
EXTT2=
EXTT3=
EXTT4=
EXTT5=
EXTT6=
EXTT7=
EXTT8=
EXTT9=
EXTT10=
EXTT11=
EXTT12=
EXTT13=
PLAYORDER=
